<?xml version="1.0" encoding="iso-8859-1"?>
<!-- Generator: Adobe Illustrator 19.0.0, SVG Export Plug-In . SVG Version: 6.00 Build 0)  -->
<svg xmlns="http://www.w3.org/2000/svg" xmlns:xlink="http://www.w3.org/1999/xlink" version="1.1" id="Capa_1" x="0px" y="0px" viewBox="0 0 480 480" style="enable-background:new 0 0 480 480;" xml:space="preserve" width="512px" height="512px">
<g>
	<g>
		<path d="M440,0H240H40C17.944,0,0,17.944,0,40v200v200c0,22.056,17.944,40,40,40h200h200c22.056,0,40-17.944,40-40V240V40    C480,17.944,462.056,0,440,0z M16,40c0-13.232,10.768-24,24-24h192v80c0,4.424,3.584,8,8,8h11.048    c8.728,0,17.68-1.992,28.176-6.28c4.968-2.024,10.472-2.264,15.888-0.672c8.016,2.336,14.392,9.104,16.24,17.232    c1.696,7.504,0.072,14.848-4.584,20.68c-6.4,8.016-17.68,11.176-27.24,7.44c-11.12-4.368-20.488-6.4-29.48-6.4H240    c-4.416,0-8,3.576-8,8v88h-72v-2.048c0-6.928,1.68-14.44,5.288-23.632c1.8-4.576,2.712-9.4,2.712-14.32    c0-12.224-5.488-23.624-15.048-31.264c-9.56-7.648-22.016-10.432-34.2-7.696c-13.712,3.112-25.128,13.848-29.064,27.368    c-2.608,8.928-2.184,18.064,1.216,26.408C94.384,215.32,96,222.36,96,228.96V232H16V40z M232,376v88H40c-13.232,0-24-10.768-24-24    V248h88c4.416,0,8-3.576,8-8v-11.04c0-8.744-2-17.704-6.28-28.192c-2.024-4.96-2.256-10.456-0.672-15.872    c2.336-8.024,9.104-14.4,17.24-16.24c7.504-1.688,14.848-0.072,20.68,4.584C148.704,177.824,152,184.664,152,192    c0,2.912-0.536,5.768-1.6,8.48c-4.368,11.12-6.4,20.488-6.4,29.48V240c0,4.424,3.584,8,8,8h80v80c0,4.424,3.584,8,8,8h11.04    c8.728,0,17.688-1.992,28.184-6.28c4.968-2.024,10.472-2.256,15.888-0.672c2.008,0.584,3.904,1.448,5.664,2.536    c5.264,3.272,9.192,8.6,10.576,14.704c1.696,7.504,0.072,14.84-4.584,20.672c-6.4,8.016-17.68,11.176-27.24,7.44    c-11.12-4.368-20.488-6.4-29.48-6.4H240C235.584,368,232,371.576,232,376z M464,440c0,13.232-10.768,24-24,24H248v-80h2.048    c6.928,0,14.44,1.68,23.64,5.288c4.584,1.8,9.4,2.712,14.312,2.712c12.232,0,23.632-5.488,31.272-15.056s10.44-22.032,7.68-34.192    c-3.104-13.72-13.84-25.128-27.352-29.064c-8.928-2.6-18.056-2.184-26.408,1.216c-8.528,3.48-15.56,5.096-22.152,5.096H248v-72h88    c4.416,0,8-3.576,8-8v-11.04c0-8.744-2-17.704-6.28-28.192c-2.024-4.96-2.256-10.448-0.672-15.872    c2.336-8.024,9.104-14.4,17.24-16.24c7.496-1.688,14.848-0.072,20.68,4.584C380.704,177.824,384,184.664,384,192    c0,2.912-0.536,5.768-1.6,8.48c-4.368,11.112-6.4,20.472-6.4,29.472V240c0,4.424,3.584,8,8,8h80V440z M464,232h-72v-2.056    c0-6.928,1.68-14.44,5.288-23.624c1.8-4.576,2.712-9.4,2.712-14.32c0-12.224-5.488-23.624-15.048-31.264    c-9.568-7.648-22.024-10.432-34.2-7.696c-13.712,3.112-25.128,13.848-29.064,27.368c-2.608,8.936-2.184,18.072,1.216,26.408    c3.48,8.504,5.096,15.544,5.096,22.144V232h-80v-80h2.048c6.928,0,14.44,1.68,23.64,5.288c4.584,1.8,9.4,2.712,14.312,2.712    c12.232,0,23.632-5.488,31.272-15.056c7.64-9.56,10.44-22.032,7.68-34.192c-3.112-13.72-13.848-25.128-27.36-29.064    c-8.928-2.6-18.056-2.192-26.408,1.216c-8.52,3.48-15.552,5.096-22.136,5.096H248V16h192c13.232,0,24,10.768,24,24V232z" fill="#1a237e"/>
	</g>
</g>
<g>
</g>
<g>
</g>
<g>
</g>
<g>
</g>
<g>
</g>
<g>
</g>
<g>
</g>
<g>
</g>
<g>
</g>
<g>
</g>
<g>
</g>
<g>
</g>
<g>
</g>
<g>
</g>
<g>
</g>
</svg>
