<?xml version="1.0" encoding="iso-8859-1"?>
<!-- Generator: Adobe Illustrator 19.0.0, SVG Export Plug-In . SVG Version: 6.00 Build 0)  -->
<svg xmlns="http://www.w3.org/2000/svg" xmlns:xlink="http://www.w3.org/1999/xlink" version="1.1" id="Capa_1" x="0px" y="0px" viewBox="0 0 512 512" style="enable-background:new 0 0 512 512;" xml:space="preserve" width="512px" height="512px">
<g>
	<g>
		<path d="M204.8,332.799h-34.133c-4.71,0-8.533,3.814-8.533,8.533v68.267c0,4.719,3.823,8.533,8.533,8.533H204.8    c4.71,0,8.533-3.814,8.533-8.533v-68.267C213.333,336.614,209.51,332.799,204.8,332.799z M196.267,401.066H179.2v-51.2h17.067    V401.066z" fill="#651fff"/>
	</g>
</g>
<g>
	<g>
		<path d="M341.333,332.799H307.2c-4.719,0-8.533,3.814-8.533,8.533v68.267c0,4.719,3.814,8.533,8.533,8.533h34.133    c4.719,0,8.533-3.814,8.533-8.533v-68.267C349.867,336.614,346.052,332.799,341.333,332.799z M332.8,401.066h-17.067v-51.2H332.8    V401.066z" fill="#651fff"/>
	</g>
</g>
<g>
	<g>
		<rect x="204.8" y="366.933" width="102.4" height="17.067" fill="#651fff"/>
	</g>
</g>
<g>
	<g>
		<rect x="204.8" y="332.799" width="102.4" height="17.067" fill="#651fff"/>
	</g>
</g>
<g>
	<g>
		<path d="M345.719,146.286l-85.333-51.2c-2.705-1.63-6.076-1.621-8.781,0l-85.333,51.2c-2.569,1.536-4.139,4.318-4.139,7.313    v187.733c0,4.719,3.823,8.533,8.533,8.533h170.667c4.719,0,8.533-3.814,8.533-8.533V153.599    C349.867,150.604,348.288,147.822,345.719,146.286z M332.8,332.799H179.2V158.438l76.8-46.08l76.8,46.08V332.799z" fill="#651fff"/>
	</g>
</g>
<g>
	<g>
		<path d="M256,204.799c-32.939,0-59.733,26.795-59.733,59.733v76.8c0,4.719,3.823,8.533,8.533,8.533h102.4    c4.719,0,8.533-3.814,8.533-8.533v-76.8C315.733,231.594,288.93,204.799,256,204.799z M298.667,332.799h-85.333v-68.267    c0-23.526,19.14-42.667,42.667-42.667c23.526,0,42.667,19.14,42.667,42.667V332.799z" fill="#651fff"/>
	</g>
</g>
<g>
	<g>
		<rect x="204.8" y="401.066" width="102.4" height="17.067" fill="#651fff"/>
	</g>
</g>
<g>
	<g>
		<path d="M273.067,273.066h-34.133c-4.71,0-8.533,3.814-8.533,8.533v59.733c0,4.719,3.823,8.533,8.533,8.533h34.133    c4.719,0,8.533-3.814,8.533-8.533v-59.733C281.6,276.88,277.786,273.066,273.067,273.066z M264.533,332.799h-17.067v-42.667    h17.067V332.799z" fill="#651fff"/>
	</g>
</g>
<g>
	<g>
		<path d="M256,136.533c-14.114,0-25.6,11.486-25.6,25.6s11.486,25.6,25.6,25.6s25.6-11.486,25.6-25.6S270.114,136.533,256,136.533z     M256,170.666c-4.702,0-8.533-3.831-8.533-8.533c0-4.702,3.831-8.533,8.533-8.533c4.71,0,8.533,3.831,8.533,8.533    C264.533,166.835,260.71,170.666,256,170.666z" fill="#651fff"/>
	</g>
</g>
<g>
	<g>
		<path d="M170.667,179.199h-153.6c-4.71,0-8.533,3.823-8.533,8.533v221.867c0,4.719,3.823,8.533,8.533,8.533h153.6    c4.71,0,8.533-3.814,8.533-8.533V187.733C179.2,183.022,175.377,179.199,170.667,179.199z M162.133,401.066H25.6v-204.8h136.533    V401.066z" fill="#651fff"/>
	</g>
</g>
<g>
	<g>
		<rect x="204.8" y="273.066" width="102.4" height="17.067" fill="#651fff"/>
	</g>
</g>
<g>
	<g>
		<rect x="204.8" y="238.933" width="102.4" height="17.067" fill="#651fff"/>
	</g>
</g>
<g>
	<g>
		<rect x="128" y="358.399" width="17.067" height="25.6" fill="#651fff"/>
	</g>
</g>
<g>
	<g>
		<rect x="85.333" y="358.399" width="17.067" height="25.6" fill="#651fff"/>
	</g>
</g>
<g>
	<g>
		<rect x="42.667" y="358.399" width="17.067" height="25.6" fill="#651fff"/>
	</g>
</g>
<g>
	<g>
		<rect x="128" y="307.199" width="17.067" height="25.6" fill="#651fff"/>
	</g>
</g>
<g>
	<g>
		<rect x="85.333" y="307.199" width="17.067" height="25.6" fill="#651fff"/>
	</g>
</g>
<g>
	<g>
		<rect x="42.667" y="307.199" width="17.067" height="25.6" fill="#651fff"/>
	</g>
</g>
<g>
	<g>
		<rect x="128" y="255.999" width="17.067" height="25.6" fill="#651fff"/>
	</g>
</g>
<g>
	<g>
		<rect x="85.333" y="255.999" width="17.067" height="25.6" fill="#651fff"/>
	</g>
</g>
<g>
	<g>
		<rect x="42.667" y="255.999" width="17.067" height="25.6" fill="#651fff"/>
	</g>
</g>
<g>
	<g>
		<rect y="213.333" width="170.667" height="17.067" fill="#651fff"/>
	</g>
</g>
<g>
	<g>
		<path d="M494.933,179.199h-153.6c-4.719,0-8.533,3.823-8.533,8.533v221.867c0,4.719,3.814,8.533,8.533,8.533h153.6    c4.719,0,8.533-3.814,8.533-8.533V187.733C503.467,183.022,499.652,179.199,494.933,179.199z M486.4,401.066H349.867v-204.8H486.4    V401.066z" fill="#651fff"/>
	</g>
</g>
<g>
	<g>
		<rect x="366.933" y="358.399" width="17.067" height="25.6" fill="#651fff"/>
	</g>
</g>
<g>
	<g>
		<rect x="409.6" y="358.399" width="17.067" height="25.6" fill="#651fff"/>
	</g>
</g>
<g>
	<g>
		<rect x="452.267" y="358.399" width="17.067" height="25.6" fill="#651fff"/>
	</g>
</g>
<g>
	<g>
		<rect x="366.933" y="307.199" width="17.067" height="25.6" fill="#651fff"/>
	</g>
</g>
<g>
	<g>
		<rect x="409.6" y="307.199" width="17.067" height="25.6" fill="#651fff"/>
	</g>
</g>
<g>
	<g>
		<rect x="452.267" y="307.199" width="17.067" height="25.6" fill="#651fff"/>
	</g>
</g>
<g>
	<g>
		<rect x="366.933" y="255.999" width="17.067" height="25.6" fill="#651fff"/>
	</g>
</g>
<g>
	<g>
		<rect x="409.6" y="255.999" width="17.067" height="25.6" fill="#651fff"/>
	</g>
</g>
<g>
	<g>
		<rect x="452.267" y="255.999" width="17.067" height="25.6" fill="#651fff"/>
	</g>
</g>
<g>
	<g>
		<rect x="341.333" y="213.333" width="170.667" height="17.067" fill="#651fff"/>
	</g>
</g>
<g>
	<g>
		<rect y="179.199" width="170.667" height="17.067" fill="#651fff"/>
	</g>
</g>
<g>
	<g>
		<rect x="341.333" y="179.199" width="170.667" height="17.067" fill="#651fff"/>
	</g>
</g>
<g>
	<g>
		<rect y="401.066" width="512" height="17.067" fill="#651fff"/>
	</g>
</g>
<g>
</g>
<g>
</g>
<g>
</g>
<g>
</g>
<g>
</g>
<g>
</g>
<g>
</g>
<g>
</g>
<g>
</g>
<g>
</g>
<g>
</g>
<g>
</g>
<g>
</g>
<g>
</g>
<g>
</g>
</svg>
